<?xml version="1.0" standalone="no"?><!DOCTYPE svg PUBLIC "-//W3C//DTD SVG 1.1//EN" "http://www.w3.org/Graphics/SVG/1.1/DTD/svg11.dtd"><svg width="200" height="200" viewBox="0 0 200 200" version="1.1" xmlns="http://www.w3.org/2000/svg" xmlns:xlink="http://www.w3.org/1999/xlink"><defs><style type="text/css"><![CDATA[

]]></style></defs><g class="transform-group"><g transform="scale(0.1953125, 0.1953125)"><path d="M978.72 863.072c31.936 31.936 31.936 83.68 0 115.616-15.968 15.968-36.896 23.968-57.824 23.968s-41.824-7.968-57.824-23.968l-351.072-351.072-351.072 351.072c-15.968 15.968-36.896 23.936-57.824 23.936s-41.856-7.968-57.824-23.936c-31.968-31.968-31.968-83.712 0-115.648l351.072-351.072-351.072-351.072c-31.936-31.968-31.936-83.68 0-115.616s83.68-31.968 115.616 0l351.072 351.072 351.072-351.072c31.936-31.968 83.712-31.968 115.648 0s31.936 83.68 0 115.616l-351.072 351.072 351.072 351.072z" fill="#fff"></path></g></g></svg>