<?xml version="1.0" encoding="utf-8"?>
<!-- Generator: Adobe Illustrator 18.1.0, SVG Export Plug-In . SVG Version: 6.00 Build 0)  -->
<svg version="1.1" id="图层_1" xmlns="http://www.w3.org/2000/svg" xmlns:xlink="http://www.w3.org/1999/xlink" x="0px" y="0px"
	 viewBox="0 0 1133.9 566.9" enable-background="new 0 0 1133.9 566.9" xml:space="preserve">
<g>
	<path fill="#262535" d="M488.8,324.8c-6.9-16.5-15.7-31.3-25.1-43.4c7.6-5.7,12.9-17.8,12.9-31.9c0-19.5-10.1-35.4-22.6-35.5
		c1.1-7.5,1.8-15.1,1.8-22.8c0-90.3-75.2-163.6-168.1-163.6c-92.8,0-168,73.2-168,163.6c0,8.7,0.9,17.1,2.2,25.4
		c-8.3,5.3-14.2,18-14.2,32.9c0,8.6,2,16.4,5.3,22.5c-10.8,11.4-21.3,26-30,42.9c-23.8,46.6-20.3,93.7-5.6,101.3
		c7.5,3.9,27.2-8.5,46.5-31.4c3.1,27,16.1,51.7,36.1,71.5c-33,9.6-54.9,28.4-52,47.6c3.7,24.2,45.4,39.7,93.3,34.7
		c35.2-3.7,63.8-17.5,75.1-34.2c2.9,0.1,5.8,0.4,8.8,0.4c5.1,0,10.2-0.2,15.2-0.6c12.2,15.8,39.1,29,71.6,33
		c46.4,5.8,86.6-9.1,89.8-33.2c2.5-19-18.8-38.1-50.7-48.2c18.7-18.9,31.2-42,35-67.4c17.1,23,34.7,37.8,43.9,35.8
		C500.9,421.7,508.6,372.2,488.8,324.8L488.8,324.8z M488.8,324.8"/>
</g>
<g>
	<path fill="#E72030" d="M1055.7,324.8c-6.9-16.5-15.7-31.3-25.1-43.4c7.6-5.7,12.9-17.8,12.9-31.9c0-19.5-10.1-35.4-22.6-35.5
		c1.1-7.5,1.8-15.1,1.8-22.8c0-90.3-75.2-163.6-168.1-163.6c-92.8,0-168,73.2-168,163.6c0,8.7,0.9,17.1,2.2,25.4
		c-8.3,5.3-14.2,18-14.2,32.9c0,8.6,2,16.4,5.3,22.5c-10.8,11.4-21.3,26-30,42.9c-23.8,46.6-20.3,93.7-5.6,101.3
		c7.5,3.9,27.2-8.5,46.5-31.4c3.1,27,16.1,51.7,36.1,71.5c-33,9.6-54.9,28.4-52,47.6c3.7,24.2,45.4,39.7,93.3,34.7
		c35.2-3.7,63.8-17.5,75.1-34.2c2.9,0.1,5.8,0.4,8.8,0.4c5.1,0,10.2-0.2,15.2-0.6c12.2,15.8,39.1,29,71.6,33
		c46.4,5.8,86.6-9.1,89.8-33.2c2.5-19-18.8-38.1-50.7-48.2c18.7-18.9,31.2-42,35-67.4c17.1,23,34.7,37.8,43.9,35.8
		C1067.8,421.7,1075.5,372.2,1055.7,324.8L1055.7,324.8z M1055.7,324.8"/>
</g>
</svg>
