<?xml version="1.0" standalone="no"?><!DOCTYPE svg PUBLIC "-//W3C//DTD SVG 1.1//EN" "http://www.w3.org/Graphics/SVG/1.1/DTD/svg11.dtd"><svg width="200" height="200" viewBox="0 0 200 200" version="1.1" xmlns="http://www.w3.org/2000/svg" xmlns:xlink="http://www.w3.org/1999/xlink"><defs><style type="text/css"><![CDATA[

]]></style></defs><g class="transform-group"><g transform="scale(0.1953125, 0.1953125)"><path d="M876.329752 223.616964l-70.579475-70.562079c-38.984896-38.969547-85.516676-20.228717-141.164067 0 0 0-165.381631 97.027847-290.849204 222.458581-133.3808 133.347031-220.853014 289.103444-220.853014 289.103444-26.482141 51.467185-38.97978 102.152565 0 141.118018l70.579475 70.567195c19.490913 19.478633 54.221926 23.644513 70.579475 0l105.871259-141.125181c16.181541-23.895223 19.490913-51.071166 0-70.560032l0 0 0 0-41.748846-41.736567c36.527938-48.939619 81.043804-103.386672 129.97012-152.306848 43.285852-43.268456 90.218768-81.724303 133.255956-113.740484l43.194778 43.182498c19.490913 19.485797 46.682205 16.176424 70.579475 0l141.164067-105.841583C895.816572 274.693246 895.816572 243.10276 876.329752 223.616964M627.143437 292.022936l56.695257 56.67786c12.401448 12.396331 29.703509 10.293437 44.913932 0l89.824795-67.356061c16.584724-12.401448 12.406564-32.502251 0-44.903699l-44.913932-44.896536c-16.57756-17.610076-55.207369-12.522198-73.788563-3.209088-79.407538 41.662889-201.681372 134.209678-282.315854 211.680097-96.90505 89.325421-229.385341 299.879881-229.385341 299.879881-8.54256 16.259312-9.194406 61.367673 3.211135 73.771167l44.913932 44.898583c15.534811 9.273201 33.55728 13.441127 44.913932 0l67.36834-89.805352c10.301623-15.207353 12.406564-32.502251 0-44.901653l-55.340399-55.323003C302.426891 615.493096 439.068967 407.64835 627.143437 292.022936z" fill="#272636"></path></g></g></svg>